<svg xmlns="http://www.w3.org/2000/svg" xmlns:xlink="http://www.w3.org/1999/xlink" version="1.1" width="256" height="256" viewBox="0 0 256 256" xml:space="preserve">
<g style="stroke: none; stroke-width: 0; stroke-dasharray: none; stroke-linecap: butt; stroke-linejoin: miter; stroke-miterlimit: 10; fill: none; fill-rule: nonzero; opacity: 1;" transform="translate(1.4065934065934016 1.4065934065934016) scale(2.81 2.81)">
	<circle cx="45" cy="45" r="45" style="stroke: none; stroke-width: 1; stroke-dasharray: none; stroke-linecap: butt; stroke-linejoin: miter; stroke-miterlimit: 10; fill: rgb(0,79,255); fill-rule: nonzero; opacity: 1;" transform="  matrix(1 0 0 1 0 0) "/>
	<path d="M 27.154 65.425 h -6.086 v -16.24 c 0 -1.104 -0.896 -2 -2 -2 s -2 0.896 -2 2 v 18.24 c 0 1.104 0.896 2 2 2 h 8.086 c 1.104 0 2 -0.896 2 -2 S 28.259 65.425 27.154 65.425 z" style="stroke: none; stroke-width: 1; stroke-dasharray: none; stroke-linecap: butt; stroke-linejoin: miter; stroke-miterlimit: 10; fill: rgb(255,255,255); fill-rule: nonzero; opacity: 1;" transform=" matrix(1 0 0 1 0 0) " stroke-linecap="round"/>
	<path d="M 35.039 47.185 c -1.104 0 -2 0.896 -2 2 v 18.24 c 0 1.104 0.896 2 2 2 s 2 -0.896 2 -2 v -18.24 C 37.039 48.08 36.144 47.185 35.039 47.185 z" style="stroke: none; stroke-width: 1; stroke-dasharray: none; stroke-linecap: butt; stroke-linejoin: miter; stroke-miterlimit: 10; fill: rgb(255,255,255); fill-rule: nonzero; opacity: 1;" transform=" matrix(1 0 0 1 0 0) " stroke-linecap="round"/>
	<path d="M 70.932 65.425 h -6.086 v -5.12 h 3.289 c 1.104 0 2 -0.896 2 -2 s -0.896 -2 -2 -2 h -3.289 v -5.12 h 6.086 c 1.104 0 2 -0.896 2 -2 s -0.896 -2 -2 -2 h -8.086 c -1.104 0 -2 0.896 -2 2 v 18.24 c 0 1.104 0.896 2 2 2 h 8.086 c 1.104 0 2 -0.896 2 -2 S 72.036 65.425 70.932 65.425 z" style="stroke: none; stroke-width: 1; stroke-dasharray: none; stroke-linecap: butt; stroke-linejoin: miter; stroke-miterlimit: 10; fill: rgb(255,255,255); fill-rule: nonzero; opacity: 1;" transform=" matrix(1 0 0 1 0 0) " stroke-linecap="round"/>
	<path d="M 56.138 47.301 c -1.042 -0.371 -2.186 0.172 -2.555 1.213 l -4.609 12.947 l -4.609 -12.947 c -0.371 -1.04 -1.516 -1.584 -2.555 -1.213 c -1.041 0.37 -1.583 1.514 -1.213 2.555 l 6.494 18.24 c 0.283 0.797 1.038 1.329 1.884 1.329 s 1.601 -0.532 1.884 -1.329 l 6.493 -18.24 C 57.722 48.814 57.178 47.671 56.138 47.301 z" style="stroke: none; stroke-width: 1; stroke-dasharray: none; stroke-linecap: butt; stroke-linejoin: miter; stroke-miterlimit: 10; fill: rgb(255,255,255); fill-rule: nonzero; opacity: 1;" transform=" matrix(1 0 0 1 0 0) " stroke-linecap="round"/>
	<path d="M 41.194 36.378 c 0 2.102 1.704 3.806 3.806 3.806 c 2.102 0 3.806 -1.704 3.806 -3.806 c 0 -2.102 -1.704 -3.806 -3.806 -3.806 C 42.898 32.572 41.194 34.276 41.194 36.378 z" style="stroke: none; stroke-width: 1; stroke-dasharray: none; stroke-linecap: butt; stroke-linejoin: miter; stroke-miterlimit: 10; fill: rgb(255,255,255); fill-rule: nonzero; opacity: 1;" transform=" matrix(1 0 0 1 0 0) " stroke-linecap="round"/>
	<path d="M 51.74 29.667 c 0.781 0.781 2.047 0.781 2.828 0 s 0.781 -2.047 0 -2.828 c -5.276 -5.277 -13.862 -5.276 -19.137 0 c -0.781 0.781 -0.781 2.047 0 2.828 c 0.39 0.391 0.902 0.586 1.414 0.586 s 1.024 -0.195 1.414 -0.586 C 41.976 25.951 48.022 25.95 51.74 29.667 z" style="stroke: none; stroke-width: 1; stroke-dasharray: none; stroke-linecap: butt; stroke-linejoin: miter; stroke-miterlimit: 10; fill: rgb(255,255,255); fill-rule: nonzero; opacity: 1;" transform=" matrix(1 0 0 1 0 0) " stroke-linecap="round"/>
	<path d="M 60.973 19.192 c -4.266 -4.267 -9.938 -6.616 -15.973 -6.616 c -6.034 0 -11.707 2.35 -15.973 6.616 c -0.781 0.781 -0.781 2.047 0 2.828 c 0.78 0.781 2.048 0.781 2.828 0 c 3.511 -3.511 8.179 -5.444 13.145 -5.444 c 4.966 0 9.634 1.934 13.145 5.444 c 0.391 0.391 0.902 0.586 1.414 0.586 s 1.023 -0.195 1.414 -0.586 C 61.754 21.239 61.754 19.973 60.973 19.192 z" style="stroke: none; stroke-width: 1; stroke-dasharray: none; stroke-linecap: butt; stroke-linejoin: miter; stroke-miterlimit: 10; fill: rgb(255,255,255); fill-rule: nonzero; opacity: 1;" transform=" matrix(1 0 0 1 0 0) " stroke-linecap="round"/>
</g>
</svg>