<?xml version="1.0" encoding="utf-8"?>
<!-- Generator: Adobe Illustrator 26.0.0, SVG Export Plug-In . SVG Version: 6.00 Build 0)  -->
<svg version="1.1" id="Layer_1" xmlns="http://www.w3.org/2000/svg" xmlns:xlink="http://www.w3.org/1999/xlink" x="0px" y="0px"
	 viewBox="0 0 708 700.3" style="enable-background:new 0 0 708 700.3;" xml:space="preserve" fill="currentColor">
<style type="text/css">
	.st0{fill-rule:evenodd;clip-rule:evenodd;}
</style>
<g>
	<path class="st0" d="M67.4,122.9h-2c0-16.2-6-30.3-18.1-42.3C35.3,68.5,21.2,62.4,5,62.4v-2c16.2,0,30.3-6,42.3-18.1
		S65.4,16.1,65.4,0h2c0,16.1,6,30.3,18.1,42.3s26.2,18.1,42.3,18.1v2c-16.2,0-30.3,6-42.3,18.1C73.5,92.6,67.4,106.7,67.4,122.9
		L67.4,122.9z"/>
</g>
<g>
	<path class="st0" d="M210.4,122.9h-2c0-16.2-6-30.3-18.1-42.3c-12.1-12.1-26.2-18.1-42.3-18.1v-2c16.2,0,30.3-6,42.3-18.1
		c12.1-12.1,18.1-26.2,18.1-42.3h2c0,16.1,6,30.3,18.1,42.3c12.1,12.1,26.2,18.1,42.3,18.1v2c-16.1,0-30.3,6-42.3,18.1
		C216.5,92.6,210.4,106.7,210.4,122.9L210.4,122.9z"/>
</g>
<g>
	<path class="st0" d="M353.4,122.9h-2c0-16.2-6-30.3-18.1-42.3c-12.1-12.1-26.2-18.1-42.3-18.1v-2c16.2,0,30.3-6,42.3-18.1
		S351.5,16.1,351.5,0h2c0,16.1,6,30.3,18.1,42.3c12.1,12.1,26.2,18.1,42.3,18.1v2c-16.1,0-30.3,6-42.3,18.1
		C359.5,92.6,353.4,106.7,353.4,122.9L353.4,122.9z"/>
</g>
<g>
	<path class="st0" d="M496.4,122.9h-2c0-16.2-6-30.3-18.1-42.3c-12.1-12.1-26.2-18.1-42.3-18.1v-2c16.2,0,30.3-6,42.3-18.1
		S494.5,16.1,494.5,0h2c0,16.1,6,30.3,18.1,42.3c12.1,12.1,26.2,18.1,42.3,18.1v2c-16.2,0-30.3,6-42.3,18.1
		C502.5,92.6,496.4,106.7,496.4,122.9L496.4,122.9z"/>
</g>
<g>
	<path class="st0" d="M639.4,122.9h-2c0-16.2-6-30.3-18.1-42.3c-12.1-12.1-26.2-18.1-42.3-18.1v-2c16.2,0,30.3-6,42.3-18.1
		c12.1-12.1,18.1-26.2,18.1-42.3h2c0,16.1,6,30.3,18.1,42.3s26.2,18.1,42.3,18.1v2c-16.2,0-30.3,6-42.3,18.1
		C645.5,92.6,639.4,106.7,639.4,122.9L639.4,122.9z"/>
</g>
<g>
	<path class="st0" d="M67.4,263.9h-2c0-16.2-6-30.3-18.1-42.3C35.3,209.5,21.2,203.4,5,203.4v-2c16.2,0,30.3-6,42.3-18.1
		s18.1-26.2,18.1-42.3h2c0,16.1,6,30.3,18.1,42.3c12.1,12.1,26.2,18.1,42.3,18.1v2c-16.2,0-30.3,6-42.3,18.1
		C73.5,233.6,67.4,247.7,67.4,263.9L67.4,263.9z"/>
</g>
<g>
	<path class="st0" d="M210.4,263.9h-2c0-16.2-6-30.3-18.1-42.3c-12.1-12.1-26.2-18.1-42.3-18.1v-2c16.2,0,30.3-6,42.3-18.1
		c12.1-12.1,18.1-26.2,18.1-42.3h2c0,16.1,6,30.3,18.1,42.3c12.1,12.1,26.2,18.1,42.3,18.1v2c-16.1,0-30.3,6-42.3,18.1
		C216.5,233.6,210.4,247.7,210.4,263.9L210.4,263.9z"/>
</g>
<g>
	<path class="st0" d="M353.4,263.9h-2c0-16.2-6-30.3-18.1-42.3c-12.1-12.1-26.2-18.1-42.3-18.1v-2c16.2,0,30.3-6,42.3-18.1
		s18.1-26.2,18.1-42.3h2c0,16.1,6,30.3,18.1,42.3c12.1,12.1,26.2,18.1,42.3,18.1v2c-16.1,0-30.3,6-42.3,18.1
		C359.5,233.6,353.4,247.7,353.4,263.9L353.4,263.9z"/>
</g>
<g>
	<path class="st0" d="M496.4,263.9h-2c0-16.2-6-30.3-18.1-42.3c-12.1-12.1-26.2-18.1-42.3-18.1v-2c16.2,0,30.3-6,42.3-18.1
		s18.1-26.2,18.1-42.3h2c0,16.1,6,30.3,18.1,42.3c12.1,12.1,26.2,18.1,42.3,18.1v2c-16.2,0-30.3,6-42.3,18.1
		C502.5,233.6,496.4,247.7,496.4,263.9L496.4,263.9z"/>
</g>
<g>
	<path class="st0" d="M639.4,263.9h-2c0-16.2-6-30.3-18.1-42.3c-12.1-12.1-26.2-18.1-42.3-18.1v-2c16.2,0,30.3-6,42.3-18.1
		c12.1-12.1,18.1-26.2,18.1-42.3h2c0,16.1,6,30.3,18.1,42.3c12.1,12.1,26.2,18.1,42.3,18.1v2c-16.2,0-30.3,6-42.3,18.1
		C645.5,233.6,639.4,247.7,639.4,263.9L639.4,263.9z"/>
</g>
<g>
	<path class="st0" d="M67.4,404.9h-2c0-16.2-6-30.3-18.1-42.3C35.3,350.5,21.2,344.4,5,344.4v-2c16.2,0,30.3-6,42.3-18.1
		s18.1-26.2,18.1-42.3h2c0,16.1,6,30.3,18.1,42.3s26.2,18.1,42.3,18.1v2c-16.2,0-30.3,6-42.3,18.1C73.5,374.6,67.4,388.7,67.4,404.9
		L67.4,404.9z"/>
</g>
<g>
	<path class="st0" d="M210.4,404.9h-2c0-16.2-6-30.3-18.1-42.3c-12.1-12.1-26.2-18.1-42.3-18.1v-2c16.2,0,30.3-6,42.3-18.1
		c12.1-12.1,18.1-26.2,18.1-42.3h2c0,16.1,6,30.3,18.1,42.3c12.1,12.1,26.2,18.1,42.3,18.1v2c-16.1,0-30.3,6-42.3,18.1
		C216.5,374.6,210.4,388.7,210.4,404.9L210.4,404.9z"/>
</g>
<g>
	<path class="st0" d="M353.4,404.9h-2c0-16.2-6-30.3-18.1-42.3c-12.1-12.1-26.2-18.1-42.3-18.1v-2c16.2,0,30.3-6,42.3-18.1
		s18.1-26.2,18.1-42.3h2c0,16.1,6,30.3,18.1,42.3c12.1,12.1,26.2,18.1,42.3,18.1v2c-16.1,0-30.3,6-42.3,18.1
		C359.5,374.6,353.4,388.7,353.4,404.9L353.4,404.9z"/>
</g>
<g>
	<path class="st0" d="M496.4,404.9h-2c0-16.2-6-30.3-18.1-42.3c-12.1-12.1-26.2-18.1-42.3-18.1v-2c16.2,0,30.3-6,42.3-18.1
		s18.1-26.2,18.1-42.3h2c0,16.1,6,30.3,18.1,42.3c12.1,12.1,26.2,18.1,42.3,18.1v2c-16.2,0-30.3,6-42.3,18.1
		C502.5,374.6,496.4,388.7,496.4,404.9L496.4,404.9z"/>
</g>
<g>
	<path class="st0" d="M639.4,404.9h-2c0-16.2-6-30.3-18.1-42.3c-12.1-12.1-26.2-18.1-42.3-18.1v-2c16.2,0,30.3-6,42.3-18.1
		c12.1-12.1,18.1-26.2,18.1-42.3h2c0,16.1,6,30.3,18.1,42.3s26.2,18.1,42.3,18.1v2c-16.2,0-30.3,6-42.3,18.1
		C645.5,374.6,639.4,388.7,639.4,404.9L639.4,404.9z"/>
</g>
<g>
	<path class="st0" d="M67.4,545.9h-2c0-16.2-6-30.3-18.1-42.3C35.3,491.5,21.2,485.4,5,485.4v-2c16.2,0,30.3-6,42.3-18.1
		s18.1-26.2,18.1-42.3h2c0,16.1,6,30.3,18.1,42.3s26.2,18.1,42.3,18.1v2c-16.2,0-30.3,6-42.3,18.1C73.5,515.6,67.4,529.7,67.4,545.9
		L67.4,545.9z"/>
</g>
<g>
	<path class="st0" d="M210.4,545.9h-2c0-16.2-6-30.3-18.1-42.3c-12.1-12.1-26.2-18.1-42.3-18.1v-2c16.2,0,30.3-6,42.3-18.1
		c12.1-12.1,18.1-26.2,18.1-42.3h2c0,16.1,6,30.3,18.1,42.3c12.1,12.1,26.2,18.1,42.3,18.1v2c-16.1,0-30.3,6-42.3,18.1
		C216.5,515.6,210.4,529.7,210.4,545.9L210.4,545.9z"/>
</g>
<g>
	<path class="st0" d="M353.4,545.9h-2c0-16.2-6-30.3-18.1-42.3c-12.1-12.1-26.2-18.1-42.3-18.1v-2c16.2,0,30.3-6,42.3-18.1
		s18.1-26.2,18.1-42.3h2c0,16.1,6,30.3,18.1,42.3c12.1,12.1,26.2,18.1,42.3,18.1v2c-16.1,0-30.3,6-42.3,18.1
		C359.5,515.6,353.4,529.7,353.4,545.9L353.4,545.9z"/>
</g>
<g>
	<path class="st0" d="M496.4,545.9h-2c0-16.2-6-30.3-18.1-42.3c-12.1-12.1-26.2-18.1-42.3-18.1v-2c16.2,0,30.3-6,42.3-18.1
		s18.1-26.2,18.1-42.3h2c0,16.1,6,30.3,18.1,42.3c12.1,12.1,26.2,18.1,42.3,18.1v2c-16.2,0-30.3,6-42.3,18.1
		C502.5,515.6,496.4,529.7,496.4,545.9L496.4,545.9z"/>
</g>
<g>
	<path class="st0" d="M639.4,545.9h-2c0-16.2-6-30.3-18.1-42.3c-12.1-12.1-26.2-18.1-42.3-18.1v-2c16.2,0,30.3-6,42.3-18.1
		c12.1-12.1,18.1-26.2,18.1-42.3h2c0,16.1,6,30.3,18.1,42.3s26.2,18.1,42.3,18.1v2c-16.2,0-30.3,6-42.3,18.1
		C645.5,515.6,639.4,529.7,639.4,545.9L639.4,545.9z"/>
</g>
<g>
	<path class="st0" d="M67.4,686.9h-2c0-16.2-6-30.3-18.1-42.3S21.2,626.4,5,626.4v-2c16.2,0,30.3-6,42.3-18.1s18.1-26.2,18.1-42.3h2
		c0,16.2,6,30.3,18.1,42.3c12.1,12.1,26.2,18.1,42.3,18.1v2c-16.2,0-30.3,6-42.3,18.1C73.5,656.6,67.4,670.7,67.4,686.9L67.4,686.9z
		"/>
</g>
<g>
	<path class="st0" d="M210.4,686.9h-2c0-16.2-6-30.3-18.1-42.3c-12.1-12.1-26.2-18.1-42.3-18.1v-2c16.2,0,30.3-6,42.3-18.1
		c12.1-12.1,18.1-26.2,18.1-42.3h2c0,16.2,6,30.3,18.1,42.3c12.1,12.1,26.2,18.1,42.3,18.1v2c-16.1,0-30.3,6-42.3,18.1
		C216.5,656.6,210.4,670.7,210.4,686.9L210.4,686.9z"/>
</g>
<g>
	<path class="st0" d="M353.4,686.9h-2c0-16.2-6-30.3-18.1-42.3s-26.2-18.1-42.3-18.1v-2c16.2,0,30.3-6,42.3-18.1
		s18.1-26.2,18.1-42.3h2c0,16.2,6,30.3,18.1,42.3c12.1,12.1,26.2,18.1,42.3,18.1v2c-16.1,0-30.3,6-42.3,18.1
		C359.5,656.6,353.4,670.7,353.4,686.9L353.4,686.9z"/>
</g>
<g>
	<path class="st0" d="M496.4,686.9h-2c0-16.2-6-30.3-18.1-42.3s-26.2-18.1-42.3-18.1v-2c16.2,0,30.3-6,42.3-18.1
		s18.1-26.2,18.1-42.3h2c0,16.2,6,30.3,18.1,42.3c12.1,12.1,26.2,18.1,42.3,18.1v2c-16.2,0-30.3,6-42.3,18.1
		C502.5,656.6,496.4,670.7,496.4,686.9L496.4,686.9z"/>
</g>
<g>
	<path class="st0" d="M639.4,686.9h-2c0-16.2-6-30.3-18.1-42.3c-12.1-12.1-26.2-18.1-42.3-18.1v-2c16.2,0,30.3-6,42.3-18.1
		c12.1-12.1,18.1-26.2,18.1-42.3h2c0,16.2,6,30.3,18.1,42.3c12.1,12.1,26.2,18.1,42.3,18.1v2c-16.2,0-30.3,6-42.3,18.1
		C645.5,656.6,639.4,670.7,639.4,686.9L639.4,686.9z"/>
</g>
</svg>
