<?xml version="1.0" encoding="utf-8"?>
<!-- Generator: Adobe Illustrator 26.4.1, SVG Export Plug-In . SVG Version: 6.00 Build 0)  -->
<svg version="1.1" id="Layer_1" xmlns="http://www.w3.org/2000/svg" xmlns:xlink="http://www.w3.org/1999/xlink" x="0px" y="0px"
	 viewBox="0 0 700 700" style="enable-background:new 0 0 700 700;" xml:space="preserve">
<style type="text/css">
	.st0{fill:"currentColor";}
	.st1{fill:"currentColor";}
</style>
<path class="st0" d="M664.6,351.4h-0.9c-12.1-1.9-23.4-7.4-32.3-15.9c-9.5-8.1-18.8-20.1-32.8-31.1c-14.9-11.3-32.8-18.1-51.5-19.4
	c-19-1.9-38.1,1.6-55.2,10.1c-14,8.4-27.2,18.1-39.3,29.1c-7.7,7-17.4,11.5-27.7,13.1c-10.1,1.5-20.3,0.6-30-2.6
	c-10.3-4.6-19.7-11.2-27.4-19.4c-13-13.1-28.7-23.2-45.9-29.7c-18.6-6-38.3-7.1-57.4-3.2c-18.9,4-36.3,13.2-50.2,26.6
	c-9.2,9.4-19.1,18.1-29.6,26.1c-9.3,5.3-19.9,7.9-30.7,7.7c-11.1,0.5-22.1-2.4-31.6-8.2c-10.3-6-21.1-16.6-35.5-25.9
	c-14.7-9.7-31.9-14.8-49.5-14.6c-4.3,0-7.3,5.4-7.3,12.1c0,6.7,2.6,12.5,5.8,13h0.9v0c12.1,2.1,23.3,7.8,32.1,16.4
	c9.5,8.2,18.8,20.2,32.8,31.2h0c14.9,11.3,32.7,18.1,51.4,19.4c19,1.9,38.1-1.7,55.1-10.3c14-8.4,27.1-18.2,39.2-29.1
	c7.8-6.9,17.4-11.4,27.7-13c10.1-1.5,20.3-0.5,30,2.8c10.3,4.7,19.7,11.4,27.4,19.7c13,13.1,28.8,23.2,46.1,29.6
	c18.6,5.9,38.4,7,57.5,3c18.9-4.1,36.2-13.3,50.2-26.7c9.1-9.5,19-18.1,29.6-25.9c9.3-5.3,19.9-8.1,30.6-7.9
	c11.1-0.4,22.1,2.5,31.5,8.3c10.3,6,21,16.5,35.5,25.9v0c14.7,9.7,32,14.8,49.6,14.6c4.4,0,7.3-5.7,7.3-12.5
	C670.1,357.7,667.7,352,664.6,351.4L664.6,351.4z"/>
<path class="st1" d="M664.6,176.7h-0.9c-12.1-1.9-23.4-7.4-32.3-15.9c-9.5-8.1-18.8-20.1-32.8-31.1v0
	c-14.9-11.3-32.8-18.1-51.5-19.4c-19-1.9-38.1,1.6-55.2,10.1c-14,8.4-27.2,18.1-39.3,29.1c-7.7,7-17.4,11.5-27.7,13.1
	c-10.1,1.5-20.3,0.6-30-2.6c-10.3-4.6-19.7-11.2-27.4-19.4c-13-13.1-28.7-23.2-45.9-29.7c-18.6-6-38.3-7.1-57.4-3.2
	c-18.9,4-36.3,13.3-50.2,26.6c-9.2,9.4-19.1,18.1-29.6,26.1c-9.3,5.3-19.9,7.9-30.7,7.7c-11.1,0.5-22.1-2.4-31.6-8.2
	c-10.3-6-21.1-16.6-35.5-25.9v0c-14.7-9.7-31.9-14.8-49.5-14.6c-4.3,0-7.3,5.4-7.3,12.1c0,6.7,2.6,12.5,5.8,13h0.9
	c12.1,2.1,23.3,7.8,32.1,16.4c9.5,8.2,18.8,20.2,32.8,31.2l0,0c14.9,11.4,32.7,18.1,51.4,19.4c19,1.9,38.1-1.7,55.1-10.3
	c14-8.4,27.1-18.2,39.2-29.1c7.8-6.9,17.4-11.4,27.7-13c10.1-1.4,20.3-0.5,30,2.8c10.3,4.7,19.7,11.4,27.4,19.7
	c13,13.1,28.8,23.2,46.1,29.6c18.6,5.9,38.4,7,57.5,3c18.9-4.1,36.2-13.3,50.2-26.7c9.1-9.5,19-18.1,29.6-25.9
	c9.3-5.3,19.9-8.1,30.6-7.9c11.1-0.4,22.1,2.5,31.5,8.3c10.3,6,21,16.5,35.5,25.9c14.7,9.7,32,14.8,49.6,14.6
	c4.4,0,7.3-5.7,7.3-12.5C670.1,182.9,667.7,177.3,664.6,176.7L664.6,176.7z"/>
<path class="st1" d="M663.8,526c-12.1-1.9-23.3-7.3-32.3-15.7c-9.5-8.1-18.8-20.1-32.8-31.1c-14.9-11.3-32.8-18.1-51.5-19.4
	c-19-1.9-38.1,1.6-55.2,10.1c-14,8.4-27.2,18.1-39.3,29.1c-7.7,7-17.4,11.5-27.7,13.1c-10.1,1.5-20.3,0.6-30-2.6
	c-10.3-4.6-19.7-11.2-27.4-19.4c-13-13.1-28.7-23.2-45.9-29.7c-18.6-6-38.3-7.1-57.4-3.2c-18.9,4-36.3,13.3-50.2,26.6
	c-9.2,9.4-19.1,18.1-29.6,26.1c-9.3,5.3-19.9,7.9-30.7,7.7c-11.1,0.5-22.1-2.4-31.6-8.2c-10.3-6-21.1-16.6-35.5-25.9
	c-14.7-9.7-31.9-14.8-49.5-14.6c-4.3,0-7.3,5.4-7.3,12.1c0,6.7,2.6,12.5,5.8,13h0.9c12.1,2.1,23.3,7.8,32.1,16.4
	c9.5,8.2,18.8,20.2,32.8,31.2h0c14.9,11.4,32.7,18.1,51.4,19.4c19,1.9,38.1-1.7,55.1-10.3c14-8.4,27.1-18.2,39.2-29.1
	c7.8-6.9,17.4-11.4,27.7-13c10.1-1.4,20.3-0.5,30,2.8c10.3,4.7,19.7,11.4,27.4,19.7c13,13.1,28.8,23.2,46.1,29.6
	c18.6,5.9,38.4,7,57.5,3c18.9-4.1,36.2-13.3,50.2-26.7c9.1-9.5,19-18.1,29.6-25.9c9.3-5.3,19.9-8.1,30.6-7.9
	c11.1-0.4,22.1,2.5,31.5,8.3c10.3,6,21,16.5,35.5,25.9c14.7,9.7,32,14.8,49.6,14.6c4.4,0,7.3-5.7,7.3-12.5c0-6.8-2.6-12.6-5.7-13.2
	L663.8,526z"/>
</svg>
